<?xml version="1.0" standalone="no"?>
<!DOCTYPE svg PUBLIC "-//W3C//DTD SVG 20010904//EN"
 "http://www.w3.org/TR/2001/REC-SVG-20010904/DTD/svg10.dtd">
<svg version="1.0" xmlns="http://www.w3.org/2000/svg"
 width="1200.000000pt" height="1200.000000pt" viewBox="0 0 1200.000000 1200.000000"
 preserveAspectRatio="xMidYMid meet">
<metadata>
Created by potrace 1.11, written by Peter Selinger 2001-2013
</metadata>
<g transform="translate(0.000000,1200.000000) scale(0.100000,-0.100000)"
fill="#000000" stroke="none">
<path d="M5767 11254 c-1 -1 -51 -5 -112 -8 -60 -4 -126 -9 -145 -12 -19 -2
-53 -6 -75 -9 -22 -2 -58 -7 -80 -10 -56 -7 -112 -14 -165 -20 -60 -7 -100
-13 -126 -19 -12 -2 -39 -7 -60 -11 -77 -12 -100 -17 -204 -41 -58 -14 -150
-40 -205 -57 -55 -17 -102 -31 -105 -32 -3 -1 -25 -8 -50 -15 -25 -7 -47 -14
-50 -14 -3 -1 -9 -4 -15 -7 -12 -8 -136 -49 -150 -50 -5 0 -14 -4 -20 -9 -12
-9 -88 -34 -94 -31 -2 2 -7 -1 -10 -6 -3 -5 -28 -17 -56 -28 -116 -42 -302
-134 -452 -221 -51 -30 -97 -54 -102 -54 -6 0 -11 -4 -11 -8 0 -5 -11 -14 -24
-20 -26 -11 -173 -104 -193 -122 -7 -5 -15 -10 -18 -10 -10 0 -218 -144 -250
-172 -16 -16 -33 -28 -37 -28 -4 0 -13 -6 -20 -12 -7 -7 -40 -35 -73 -63 -88
-73 -321 -299 -422 -411 -92 -101 -113 -125 -158 -184 -27 -36 -55 -69 -61
-75 -19 -17 -134 -185 -134 -195 0 -6 -4 -10 -8 -10 -5 0 -16 -15 -26 -32 -18
-36 -29 -55 -64 -110 -63 -101 -302 -579 -302 -604 0 -3 -8 -24 -19 -47 -38
-84 -138 -374 -145 -420 -1 -7 -5 -18 -9 -24 -5 -7 -6 -13 -2 -13 3 0 1 -8 -4
-18 -6 -11 -12 -30 -15 -43 -2 -13 -14 -62 -26 -109 -12 -47 -23 -92 -25 -100
-2 -8 -8 -35 -14 -59 -5 -25 -8 -48 -5 -52 2 -4 0 -10 -5 -13 -7 -5 -22 -76
-22 -108 0 -4 -5 -22 -10 -40 -6 -18 -12 -44 -14 -58 -2 -14 -6 -38 -9 -55 -3
-16 -8 -46 -11 -65 -3 -19 -7 -46 -10 -60 -47 -265 -49 -784 -3 -1080 6 -41
12 -88 14 -105 1 -16 3 -30 4 -30 1 0 3 -11 6 -25 17 -98 66 -302 94 -390 6
-19 13 -42 15 -50 9 -39 69 -206 77 -217 6 -7 7 -13 4 -13 -4 0 -1 -10 6 -22
6 -13 13 -28 14 -34 1 -6 32 -71 69 -145 38 -74 75 -147 83 -164 9 -16 18 -32
21 -35 3 -3 15 -23 26 -45 11 -22 24 -43 30 -47 5 -4 6 -8 2 -8 -5 0 12 -29
37 -65 25 -36 46 -70 46 -75 0 -4 3 -10 8 -12 4 -1 28 -32 54 -68 25 -36 60
-81 76 -100 17 -19 40 -46 52 -60 36 -42 125 -133 161 -165 84 -74 233 -177
243 -168 3 4 6 1 6 -5 0 -7 3 -11 8 -10 4 1 21 -5 37 -14 49 -25 178 -68 205
-68 14 1 48 -3 75 -9 62 -11 324 -12 385 -1 68 12 101 20 145 32 52 15 45 13
80 27 17 6 35 13 42 16 6 2 41 22 78 44 37 23 69 41 72 41 24 0 228 197 300
290 90 117 202 323 248 455 9 28 21 59 26 70 19 46 78 225 73 225 -2 0 0 8 5
18 6 11 13 32 16 48 7 36 9 44 18 69 3 11 9 34 12 50 11 50 14 68 24 115 5 25
12 63 15 85 4 22 9 53 12 69 3 16 7 48 9 70 2 23 6 52 9 66 2 14 7 52 11 85 4
33 9 78 13 100 3 22 6 52 6 68 1 15 3 27 6 27 3 0 5 21 6 48 1 46 9 164 19
267 17 181 24 279 30 395 2 47 7 112 10 145 3 33 8 92 10 130 2 39 4 70 5 70
0 0 3 51 5 113 5 108 9 178 21 362 3 47 7 115 8 151 2 36 5 70 7 75 7 13 3
163 -5 202 -4 18 -11 39 -16 45 -5 7 -21 26 -34 43 -29 36 -93 82 -127 91 -13
3 -368 6 -789 7 -855 1 -787 6 -869 -72 -65 -61 -91 -120 -95 -215 -5 -107 20
-185 78 -242 84 -84 46 -79 711 -81 325 -1 596 -2 603 -3 11 -1 13 -41 7 -223
-7 -221 -13 -393 -15 -393 -1 0 -3 -49 -5 -110 -2 -60 -6 -144 -10 -185 -3
-41 -8 -113 -10 -160 -7 -117 -13 -207 -20 -260 -4 -43 -12 -116 -20 -190 -2
-19 -6 -44 -8 -55 -3 -11 -8 -40 -11 -65 -3 -25 -8 -55 -10 -66 -2 -12 -7 -39
-10 -60 -4 -21 -16 -81 -27 -134 -11 -52 -22 -107 -24 -122 -3 -15 -9 -37 -14
-50 -5 -13 -9 -26 -9 -31 -2 -33 -34 -141 -61 -202 -5 -11 -15 -36 -22 -55
-15 -44 -71 -163 -79 -170 -3 -3 -11 -16 -17 -30 -24 -49 -107 -181 -141 -221
-9 -12 -37 -40 -61 -63 -24 -22 -49 -46 -56 -53 -26 -25 -175 -103 -198 -103
-7 0 -17 -4 -22 -9 -29 -27 -160 -32 -290 -11 -71 11 -195 69 -297 138 -69 46
-238 200 -238 216 0 4 -13 21 -30 39 -16 18 -30 35 -30 39 0 5 -16 30 -35 57
-19 26 -35 53 -35 60 0 6 -3 11 -7 11 -5 0 -13 10 -19 23 -23 49 -60 112 -69
119 -5 4 -7 8 -2 8 4 0 -5 19 -20 43 -14 23 -26 43 -24 45 1 1 -9 26 -22 55
-14 28 -39 88 -57 132 -17 44 -36 89 -40 100 -10 23 -45 137 -56 180 -4 17 -8
35 -10 40 -2 6 -6 24 -9 40 -12 54 -13 60 -15 65 -1 3 -2 8 -2 11 1 4 -3 21
-8 38 -5 17 -12 54 -15 83 -4 28 -9 60 -11 72 -11 59 -21 158 -29 316 -9 154
-9 217 0 345 9 143 15 197 41 365 3 25 7 51 7 58 0 6 4 12 8 12 5 0 6 6 3 14
-3 8 0 33 6 57 7 24 14 55 15 69 2 14 13 68 25 120 12 52 23 103 25 113 2 9
11 45 20 80 9 34 19 73 21 87 2 14 11 43 18 65 8 22 17 54 22 70 4 17 8 35 10
40 1 6 16 51 34 100 17 50 33 95 34 100 3 10 21 56 33 85 3 8 7 17 8 20 27 81
236 505 276 561 10 14 16 29 12 33 -3 3 -2 6 4 6 5 0 18 18 29 40 10 22 22 40
27 40 4 0 7 4 7 10 0 9 97 159 110 170 3 3 19 23 36 45 16 22 39 51 51 65 12
14 31 36 42 50 113 134 304 330 398 407 34 29 68 56 75 63 53 45 271 196 277
191 2 -1 7 1 10 6 7 10 180 120 303 192 83 49 341 181 354 181 3 0 20 7 37 15
147 67 584 212 727 241 14 3 40 9 59 14 19 5 38 7 43 4 4 -3 8 -1 8 3 0 5 8 9
18 10 22 2 125 18 172 28 14 3 45 7 70 10 25 3 61 7 80 10 48 6 104 13 170 21
30 3 66 8 80 10 162 22 578 22 800 -1 19 -2 67 -6 105 -10 39 -3 86 -8 105
-11 19 -2 59 -6 88 -10 29 -3 61 -7 70 -9 9 -1 58 -10 107 -19 50 -10 128 -26
175 -38 47 -11 91 -21 98 -21 6 0 12 -4 12 -9 0 -5 4 -7 9 -4 5 4 21 2 35 -4
15 -5 37 -12 49 -14 40 -9 61 -15 147 -41 47 -14 92 -27 100 -29 8 -3 38 -12
65 -21 28 -10 55 -18 60 -19 21 -4 160 -59 169 -67 6 -5 18 -9 27 -9 10 0 38
-11 63 -24 26 -14 46 -23 46 -20 0 7 423 -208 530 -270 58 -33 133 -79 168
-103 35 -24 66 -43 69 -43 4 0 13 -7 22 -15 9 -8 72 -56 141 -106 69 -51 127
-96 128 -101 2 -4 10 -8 17 -8 7 0 15 -4 17 -9 2 -4 55 -50 118 -102 143 -116
324 -295 483 -478 109 -125 266 -322 285 -358 7 -12 18 -28 24 -35 24 -25 58
-77 58 -88 0 -5 4 -10 9 -10 5 0 16 -15 25 -32 9 -18 36 -64 61 -103 24 -38
44 -75 45 -82 0 -6 4 -13 9 -15 13 -5 175 -304 233 -433 77 -167 217 -546 230
-621 2 -10 5 -21 9 -24 3 -3 13 -36 23 -75 9 -38 22 -86 27 -105 5 -19 12 -42
14 -50 2 -8 4 -15 5 -15 1 0 3 -9 5 -20 2 -11 6 -31 9 -45 10 -43 16 -74 22
-110 3 -19 8 -38 10 -42 3 -4 7 -29 10 -55 2 -26 7 -59 9 -73 5 -24 14 -95 20
-150 2 -14 4 -25 5 -25 2 0 3 -10 14 -120 3 -33 8 -87 11 -120 18 -174 22
-385 11 -545 -4 -52 -9 -122 -11 -155 -9 -144 -17 -222 -30 -315 -3 -19 -8
-55 -11 -80 -3 -25 -7 -58 -10 -75 -3 -16 -7 -39 -9 -50 -1 -11 -5 -31 -9 -45
-3 -14 -8 -37 -11 -52 -10 -57 -20 -96 -41 -173 -9 -33 -18 -67 -20 -75 -2 -8
-11 -42 -20 -75 -9 -33 -17 -67 -19 -75 -2 -8 -11 -37 -20 -64 -9 -26 -18 -56
-20 -65 -2 -9 -11 -36 -20 -61 -9 -25 -18 -52 -20 -60 -2 -8 -29 -78 -60 -155
-31 -77 -58 -149 -60 -160 -3 -11 -9 -21 -15 -23 -5 -2 -10 -8 -10 -14 0 -5
-14 -40 -32 -76 -17 -37 -32 -69 -33 -72 -3 -12 -64 -128 -83 -160 -12 -19
-26 -45 -32 -58 -5 -12 -28 -50 -50 -83 -22 -33 -40 -64 -40 -68 0 -4 -9 -16
-20 -26 -11 -10 -18 -20 -15 -23 3 -3 -1 -12 -9 -21 -29 -34 -170 -248 -183
-279 -19 -46 -19 -117 1 -147 30 -45 92 -69 181 -69 59 0 87 4 106 17 14 9 29
14 32 10 4 -3 7 -2 7 4 0 5 18 18 40 28 22 10 40 22 40 26 0 4 8 10 18 13 31
11 136 118 162 166 6 12 20 31 30 43 11 12 19 26 19 31 0 5 4 12 11 16 30 19
240 414 240 453 0 9 4 17 9 17 5 0 14 15 21 32 7 18 23 56 36 83 67 150 195
496 207 562 2 10 7 25 10 33 9 25 27 86 31 106 2 10 11 44 20 75 9 31 19 65
21 75 2 11 9 39 16 64 15 63 15 63 39 175 11 55 23 116 25 135 5 43 12 94 19
140 10 61 24 213 31 320 2 25 6 88 11 140 4 52 7 192 7 310 0 194 -4 271 -17
395 -3 22 -8 72 -11 110 -11 110 -12 120 -19 161 -8 50 -15 99 -21 146 -6 52
-14 104 -25 158 -6 25 -12 56 -14 70 -2 14 -9 45 -16 70 -7 25 -14 54 -16 65
-4 23 -14 65 -18 80 -1 6 -8 30 -15 55 -14 52 -69 228 -78 250 -3 8 -8 24 -10
35 -2 11 -12 43 -22 70 -11 28 -34 91 -51 140 -17 50 -35 99 -40 110 -7 17
-19 49 -25 65 -12 35 -102 227 -150 320 -71 138 -80 155 -87 158 -5 2 -8 8 -8
14 0 10 -178 319 -189 328 -3 3 -12 17 -20 33 -8 15 -18 27 -23 27 -4 0 -8 6
-8 14 0 7 -21 43 -47 79 -27 36 -55 75 -63 87 -29 42 -72 95 -83 102 -7 4 -9
8 -5 8 5 0 -1 10 -11 23 -75 89 -197 234 -206 243 -5 6 -39 45 -75 85 -87 99
-320 331 -399 399 -36 30 -76 65 -90 77 -33 28 -28 25 -141 113 -52 41 -96 78
-98 82 -2 5 -8 8 -13 8 -5 0 -23 12 -39 27 -16 14 -41 33 -54 42 -77 51 -151
106 -154 113 -2 4 -8 8 -12 8 -5 0 -45 24 -89 53 -80 52 -142 90 -151 92 -3 0
-25 12 -50 27 -25 15 -58 32 -75 40 -16 7 -32 15 -35 18 -3 3 -36 21 -75 40
-38 19 -72 37 -75 40 -3 3 -39 21 -80 40 -41 19 -78 40 -82 45 -4 6 -8 7 -8 2
0 -4 -22 4 -50 18 -50 25 -283 123 -310 131 -8 2 -55 17 -105 34 -49 17 -97
33 -105 35 -8 2 -43 12 -77 23 -34 11 -65 17 -68 14 -3 -3 -5 0 -5 7 0 7 -4
10 -9 7 -5 -3 -28 1 -51 9 -24 8 -52 17 -64 19 -12 2 -41 10 -66 17 -25 7 -47
13 -50 14 -22 5 -70 15 -92 19 -15 3 -31 7 -36 10 -5 3 -22 8 -38 10 -16 3
-40 8 -54 11 -14 3 -42 7 -64 10 -21 3 -41 7 -45 9 -4 3 -27 7 -52 10 -24 3
-60 8 -79 10 -155 20 -256 30 -445 42 -94 6 -542 13 -548 8z"/>
<path d="M6979 9506 c-2 -3 -48 -6 -102 -7 -70 -2 -101 -7 -110 -17 -18 -22
-18 -731 0 -753 18 -21 192 -26 253 -8 87 26 172 141 189 254 8 51 7 229 0
275 -9 55 -43 123 -83 168 -35 38 -101 79 -120 74 -5 -2 -12 2 -16 8 -3 5 -8
8 -11 6z m-10 -112 c44 -9 83 -46 110 -103 23 -50 26 -69 27 -181 1 -69 -1
-129 -4 -135 -4 -5 -7 -16 -8 -23 -5 -31 -48 -104 -72 -121 -36 -25 -115 -47
-120 -33 -2 6 -10 8 -18 5 -16 -6 -15 -13 -15 372 0 201 2 220 18 227 10 4 27
5 38 2 11 -3 31 -7 44 -10z"/>
<path d="M5615 9490 c-11 -4 -23 -6 -27 -3 -5 2 -8 -1 -8 -8 0 -7 -3 -9 -6 -6
-10 9 -114 -71 -114 -87 0 -4 -7 -14 -15 -23 -8 -8 -13 -19 -10 -24 4 -5 2 -9
-3 -9 -9 0 -29 -61 -41 -125 -7 -38 -5 -192 3 -225 3 -14 8 -36 11 -49 2 -12
9 -29 15 -35 5 -7 7 -16 3 -19 -3 -4 -1 -7 5 -7 7 0 11 -4 10 -10 -6 -24 90
-122 132 -135 3 -1 13 -5 22 -9 10 -5 53 -6 95 -3 84 5 101 8 121 20 6 5 12 6
12 3 0 -3 11 4 25 16 29 25 30 28 10 74 l-14 35 -58 -31 c-31 -17 -63 -28 -70
-26 -7 3 -13 1 -13 -4 0 -23 -96 14 -128 50 -101 110 -101 387 -1 490 58 60
119 68 204 24 60 -30 77 -26 90 23 8 32 -12 55 -72 83 -47 22 -143 33 -178 20z"/>
<path d="M6255 9490 c-11 -4 -23 -6 -27 -3 -12 6 -100 -86 -93 -97 3 -6 2 -10
-2 -10 -10 0 -15 -28 -15 -80 0 -75 22 -125 77 -176 21 -18 41 -31 46 -28 5 3
9 1 9 -5 0 -5 10 -13 22 -17 13 -4 39 -18 60 -31 30 -21 39 -34 49 -77 11 -50
3 -112 -18 -141 -16 -22 -63 -35 -84 -25 -10 6 -19 8 -19 5 0 -6 -58 22 -79
38 -24 20 -42 16 -52 -11 -21 -54 -19 -62 19 -85 20 -12 39 -22 42 -22 3 0 10
-3 15 -6 6 -4 46 -7 90 -8 71 -2 84 1 120 24 40 27 75 80 75 115 0 10 5 22 10
25 7 4 7 11 2 18 -5 7 -6 21 -2 32 4 11 4 27 0 35 -4 8 -10 31 -14 50 -10 53
-62 106 -146 149 -81 41 -112 77 -113 134 -2 50 21 96 52 104 38 10 45 10 59
0 6 -5 12 -7 12 -4 0 9 63 -14 80 -29 12 -10 19 -10 34 2 11 8 17 14 14 14 -4
0 -3 13 2 29 6 23 4 33 -11 47 -10 9 -19 14 -19 11 0 -3 -17 1 -37 10 -41 17
-127 24 -158 13z"/>
<path d="M4702 9477 c-11 -14 -9 -513 2 -577 11 -65 46 -129 89 -164 33 -26
48 -31 108 -34 81 -5 121 10 167 62 39 45 64 121 67 211 2 41 6 79 10 84 3 6
3 11 -2 11 -4 0 -7 92 -7 205 1 168 -1 205 -12 206 -8 1 -31 2 -51 3 l-38 1
-5 -290 c-5 -279 -6 -292 -28 -338 -13 -26 -28 -45 -32 -42 -5 3 -11 1 -15 -5
-4 -6 -10 -8 -15 -5 -5 3 -11 1 -15 -4 -9 -16 -62 8 -80 36 -32 48 -36 89 -35
360 0 186 -3 274 -10 278 -20 13 -89 13 -98 2z"/>
<path d="M8705 8332 c-16 -8 -35 -20 -40 -26 -26 -26 -73 -105 -94 -156 -12
-30 -26 -64 -31 -75 -17 -35 -127 -318 -150 -385 -13 -36 -28 -70 -33 -77 -5
-7 -6 -17 -2 -23 3 -5 1 -10 -4 -10 -6 0 -11 -8 -11 -18 0 -10 -7 -27 -15 -39
-8 -12 -16 -29 -18 -40 -2 -10 -9 -28 -15 -40 -7 -13 -10 -23 -7 -23 4 0 -4
-17 -17 -37 -12 -21 -22 -40 -20 -43 3 -8 -39 -134 -51 -147 -5 -7 -6 -13 -2
-13 4 0 2 -7 -5 -15 -7 -8 -9 -15 -5 -15 4 0 3 -6 -2 -12 -5 -7 -20 -42 -33
-78 -13 -36 -30 -75 -37 -86 -8 -12 -15 -30 -17 -40 -3 -11 -10 -32 -17 -49
-7 -16 -12 -33 -11 -37 1 -5 -3 -8 -8 -8 -6 0 -10 -10 -10 -23 0 -13 -3 -27
-7 -31 -4 -3 -8 -13 -9 -20 -1 -7 -9 -29 -17 -47 -8 -19 -20 -50 -27 -69 -7
-19 -19 -48 -26 -65 -7 -16 -19 -50 -28 -75 -8 -25 -26 -73 -40 -108 -13 -34
-25 -64 -25 -65 0 -3 -11 -35 -43 -119 -16 -43 -29 -81 -29 -85 0 -5 -6 -17
-13 -28 -11 -18 -47 -106 -52 -130 -2 -5 -15 -39 -29 -73 -15 -35 -28 -71 -30
-80 -6 -30 -87 -267 -95 -277 -4 -5 -19 -46 -34 -90 -15 -44 -29 -87 -33 -95
-3 -8 -7 -19 -9 -25 -1 -5 -16 -44 -32 -85 -16 -41 -60 -154 -97 -250 -36 -96
-72 -188 -80 -205 -7 -16 -17 -41 -21 -55 -3 -14 -15 -43 -24 -65 -19 -41 -54
-134 -56 -147 -1 -5 -3 -10 -4 -13 -1 -3 -4 -9 -5 -15 -1 -5 -4 -12 -5 -15 -1
-3 -3 -8 -4 -12 -1 -5 -4 -12 -7 -18 -4 -5 -10 -26 -15 -45 -4 -19 -9 -39 -10
-45 -1 -5 -5 -28 -9 -50 -4 -22 -9 -43 -11 -47 -2 -4 1 -10 7 -13 5 -4 8 -13
5 -20 -2 -7 -2 -16 2 -19 3 -4 7 -13 8 -22 4 -28 46 -99 75 -126 47 -46 95
-60 175 -55 39 3 84 12 101 20 71 37 143 152 210 332 17 44 34 89 38 100 5 11
9 22 10 25 1 3 5 12 8 20 4 8 23 60 42 115 20 55 40 111 47 125 6 14 14 34 18
45 4 11 17 45 29 75 13 30 23 60 25 65 1 6 16 46 33 90 39 101 46 119 47 125
1 3 4 10 7 15 4 6 12 28 19 50 7 22 20 56 28 75 9 19 16 37 17 40 1 3 7 17 13
32 l11 27 545 -1 544 0 6 -32 c3 -17 8 -40 10 -51 2 -11 7 -51 11 -90 4 -38 8
-77 10 -86 2 -8 6 -47 10 -85 3 -38 8 -87 11 -109 4 -36 8 -82 18 -215 14
-178 18 -264 17 -320 -1 -36 -2 -69 -2 -75 6 -194 -17 -564 -44 -705 -6 -29
-18 -124 -19 -142 0 -10 -3 -18 -6 -18 -4 0 -7 -6 -7 -12 -2 -25 -12 -83 -17
-98 -3 -8 -7 -26 -10 -40 -6 -39 -65 -239 -87 -300 -12 -30 -22 -59 -23 -65
-1 -5 -10 -27 -19 -49 -9 -21 -17 -40 -17 -41 0 -1 -12 -29 -27 -61 -15 -33
-27 -61 -28 -64 -3 -14 -75 -150 -98 -187 -15 -24 -27 -45 -27 -48 0 -3 -16
-28 -35 -55 -19 -27 -35 -52 -35 -55 0 -6 -14 -24 -42 -56 -10 -10 -18 -22
-17 -25 1 -3 -12 -21 -27 -39 -16 -18 -38 -45 -49 -61 -11 -15 -24 -32 -30
-38 -5 -6 -35 -40 -65 -75 -131 -154 -259 -262 -460 -391 -8 -5 -35 -23 -60
-40 -25 -16 -49 -30 -54 -30 -5 0 -17 -6 -25 -14 -27 -24 -319 -166 -341 -166
-6 0 -18 -4 -28 -9 -9 -6 -62 -24 -117 -41 -55 -17 -107 -34 -115 -37 -8 -4
-19 -5 -24 -4 -4 1 -14 -4 -22 -10 -8 -6 -14 -9 -14 -6 0 4 -19 0 -41 -9 -23
-8 -51 -16 -63 -18 -12 -3 -49 -12 -83 -21 -67 -17 -96 -24 -128 -30 -11 -1
-38 -6 -60 -10 -22 -5 -49 -9 -60 -11 -11 -1 -20 -3 -20 -4 0 -2 -10 -3 -96
-14 -31 -4 -66 -8 -77 -11 -11 -2 -57 -6 -102 -10 -45 -4 -92 -8 -103 -11 -39
-7 -269 -17 -402 -17 -127 -1 -410 15 -410 23 0 1 -16 3 -35 5 -19 2 -62 7
-95 10 -33 4 -72 8 -87 9 -16 0 -28 3 -28 6 0 3 -15 5 -32 4 -18 0 -40 3 -48
7 -8 4 -40 10 -70 14 -30 3 -84 13 -120 21 -36 9 -74 17 -85 19 -64 13 -249
61 -385 101 -47 14 -109 32 -138 40 -30 8 -62 19 -73 24 -10 6 -19 8 -19 5 0
-3 -15 1 -34 9 -19 8 -37 12 -40 8 -3 -3 -6 0 -6 6 0 7 -3 11 -7 10 -23 -5
-229 76 -400 158 -65 31 -133 63 -151 71 -19 8 -86 43 -149 79 -63 35 -117 64
-120 64 -2 0 -16 8 -31 19 -65 45 -152 101 -156 101 -16 0 -332 238 -476 359
-103 86 -369 360 -486 500 -16 19 -38 44 -49 56 -32 34 -98 114 -174 210 -38
50 -77 98 -85 108 -9 9 -16 20 -16 25 0 6 -16 27 -60 79 -5 7 -10 15 -10 18 0
3 -16 28 -35 55 -19 27 -35 52 -35 54 0 3 -17 31 -38 63 -22 32 -54 85 -72
118 -18 33 -41 71 -50 85 -37 53 -222 431 -226 460 0 3 -8 23 -18 45 -30 68
-148 413 -161 470 -3 11 -14 56 -25 100 -24 96 -31 124 -35 150 -2 11 -4 20
-5 20 -1 0 -3 7 -5 15 -9 44 -16 78 -20 105 -3 17 -7 40 -10 53 -3 12 -7 32
-10 45 -3 12 -7 36 -10 52 -9 69 -22 146 -29 180 -10 53 -25 221 -31 360 -7
162 -12 190 -38 232 -54 84 -85 99 -188 94 -33 -1 -103 -70 -134 -131 -61
-120 -79 -221 -79 -455 0 -172 11 -283 45 -433 5 -23 12 -59 15 -80 3 -20 15
-75 26 -122 18 -77 27 -118 32 -145 1 -5 5 -16 9 -22 5 -7 6 -13 3 -13 -3 0 1
-18 9 -40 8 -22 15 -44 15 -48 1 -11 11 -55 16 -70 2 -7 4 -16 5 -20 1 -4 13
-38 26 -77 13 -38 26 -77 28 -85 14 -57 131 -363 174 -455 11 -22 33 -69 49
-105 28 -59 77 -151 159 -300 45 -82 97 -165 106 -168 4 -2 7 -8 7 -14 0 -12
122 -202 132 -206 5 -2 8 -9 8 -16 0 -7 8 -21 18 -32 9 -10 38 -49 64 -85 46
-65 202 -261 236 -298 9 -10 40 -44 67 -76 53 -61 72 -82 175 -195 91 -100
347 -356 410 -410 29 -25 58 -50 64 -56 9 -8 147 -117 276 -217 9 -7 45 -32
80 -56 36 -25 67 -47 70 -50 3 -4 13 -10 22 -16 10 -5 65 -40 122 -77 58 -37
124 -78 148 -90 24 -12 45 -24 48 -27 12 -14 350 -182 500 -249 65 -29 194
-80 275 -109 39 -13 77 -27 85 -30 8 -3 20 -7 25 -8 6 -2 51 -15 100 -30 128
-38 187 -55 209 -60 10 -2 60 -16 110 -30 119 -33 155 -43 191 -51 17 -4 35
-8 40 -10 6 -1 21 -4 35 -7 14 -3 48 -10 75 -17 43 -10 97 -20 245 -45 14 -2
48 -7 75 -10 28 -3 66 -7 85 -10 33 -4 110 -14 175 -20 226 -24 731 -24 920 0
17 2 57 6 90 9 113 11 202 22 265 33 19 3 42 7 50 7 9 1 21 5 28 10 6 4 16 5
21 2 5 -4 20 -2 33 3 14 5 42 12 64 15 21 4 57 11 79 17 22 6 48 13 58 15 10
2 27 6 37 9 10 3 27 8 37 10 32 7 217 63 244 73 15 6 30 8 33 5 3 -4 6 0 6 7
0 7 3 11 6 7 3 -3 28 3 55 13 27 11 49 17 49 14 0 -4 6 -2 13 3 6 6 30 16 52
23 22 7 45 16 50 20 6 5 13 9 17 9 23 4 247 110 258 122 3 3 13 8 23 12 30 11
308 188 387 246 148 109 266 219 406 377 38 44 71 81 74 84 3 3 17 21 32 42
15 20 33 42 41 50 20 21 140 188 177 248 19 30 37 57 40 60 4 3 26 41 49 85
24 44 46 85 50 90 3 6 6 12 6 15 1 3 22 48 47 100 55 114 80 169 82 184 1 6 4
16 7 21 4 6 12 28 19 50 7 22 18 54 25 70 8 17 25 68 39 115 25 80 29 98 42
159 3 14 7 28 10 33 3 5 8 21 11 36 3 15 6 32 7 37 7 27 20 92 22 110 1 11 3
21 4 23 4 4 6 14 14 72 5 30 9 62 11 70 3 17 16 121 21 165 4 39 15 183 19
260 5 78 5 560 0 650 -5 100 -15 251 -21 310 -3 28 -6 74 -7 102 -1 29 -4 53
-7 53 -3 0 -6 12 -6 28 -2 40 -13 162 -19 197 -11 70 -14 93 -19 145 -8 66
-13 106 -22 163 -3 23 -8 56 -10 72 -2 17 -5 39 -7 50 -3 11 -8 45 -12 75 -4
30 -9 64 -12 75 -2 11 -6 36 -8 55 -2 19 -4 35 -5 35 -2 0 -7 25 -13 75 -6 44
-12 79 -22 130 -3 14 -8 39 -10 55 -3 17 -8 41 -10 55 -3 14 -8 39 -11 55 -3
17 -10 50 -15 75 -6 25 -13 56 -15 70 -2 14 -16 75 -31 135 -14 61 -27 119
-29 130 -1 11 -3 20 -4 20 -1 0 -4 8 -13 45 -2 8 -7 33 -11 55 -4 22 -10 47
-13 55 -7 17 -9 25 -17 60 -8 39 -14 62 -25 99 -6 18 -10 36 -9 40 1 3 -2 13
-5 21 -5 12 -49 177 -62 230 -2 8 -4 15 -5 15 -1 0 -3 11 -6 25 -2 14 -11 45
-18 70 -8 25 -21 72 -31 105 -9 33 -23 83 -31 110 -8 28 -19 68 -25 90 -6 22
-15 51 -19 65 -5 14 -19 59 -31 100 -72 247 -103 313 -170 357 -34 23 -52 27
-122 29 -58 1 -91 -3 -112 -14z m122 -1114 c0 -7 11 -49 23 -93 26 -97 59
-223 64 -250 3 -11 14 -58 26 -105 21 -84 26 -107 35 -145 2 -11 6 -29 9 -40
2 -11 14 -58 25 -105 11 -47 23 -98 25 -115 3 -16 10 -52 16 -80 13 -57 20
-99 23 -135 2 -14 6 -30 9 -35 4 -6 9 -39 13 -72 l6 -62 -390 -1 -390 0 9 27
c4 16 17 49 29 76 11 26 21 51 21 55 1 4 10 27 21 51 10 24 19 45 19 47 0 2 8
23 19 47 10 23 24 58 31 77 13 34 33 84 51 125 8 19 30 74 34 85 1 3 5 14 10
25 43 104 156 393 160 405 2 8 4 16 5 18 2 1 3 5 5 10 1 4 11 28 23 54 11 25
29 69 39 97 17 49 29 64 30 39z"/>
<path d="M5968 8319 c-7 -4 -32 -10 -55 -14 -24 -4 -45 -11 -49 -16 -3 -5 -10
-7 -15 -3 -5 3 -16 1 -23 -5 -8 -7 -42 -25 -77 -42 -35 -17 -76 -40 -92 -52
-51 -38 -176 -166 -220 -225 -23 -31 -45 -59 -48 -62 -6 -5 -65 -126 -102
-210 -20 -46 -69 -231 -63 -238 3 -2 1 -13 -5 -23 -10 -19 -18 -133 -19 -254
-1 -82 12 -240 20 -240 1 0 3 -13 6 -30 9 -64 29 -135 57 -200 19 -46 77 -144
102 -171 6 -7 26 -31 45 -55 56 -68 150 -158 220 -210 36 -27 74 -57 86 -67
11 -11 32 -25 45 -32 13 -7 31 -19 39 -27 8 -8 52 -41 98 -74 45 -34 82 -65
82 -70 0 -5 5 -9 11 -9 6 0 16 -6 23 -12 7 -7 37 -33 66 -58 78 -66 134 -125
166 -175 10 -16 21 -32 24 -35 12 -11 55 -124 66 -174 15 -63 17 -89 17 -171
0 -116 -16 -266 -30 -289 -4 -6 -9 -15 -10 -21 -1 -5 -4 -17 -6 -25 -10 -42
-95 -195 -131 -237 -30 -33 -36 -43 -31 -43 9 0 -63 -67 -105 -99 -19 -14 -38
-30 -41 -34 -3 -5 -12 -10 -20 -11 -8 -2 -21 -6 -29 -9 -33 -15 -114 -24 -187
-22 -87 2 -139 21 -234 86 -66 45 -208 185 -209 207 -1 4 -14 23 -30 42 -17
19 -30 40 -30 46 0 7 -3 14 -7 16 -13 5 -63 76 -63 87 0 6 -4 11 -10 11 -5 0
-10 5 -10 10 0 14 -98 110 -113 111 -7 0 -21 3 -32 5 -18 4 -89 6 -137 4 -10
-1 -18 -5 -18 -9 0 -4 -11 -13 -24 -19 -25 -11 -94 -109 -99 -140 -1 -9 -5
-21 -8 -27 -7 -13 -4 -111 5 -155 17 -86 80 -221 159 -340 109 -164 206 -271
345 -382 69 -55 234 -124 327 -136 64 -9 311 -8 350 1 110 25 103 22 205 70
184 86 410 271 518 423 53 75 116 184 107 184 -3 0 2 11 11 24 8 14 15 27 15
30 -1 4 0 8 0 11 3 13 6 21 12 35 20 53 66 249 73 315 26 250 22 458 -12 623
-16 79 -19 86 -74 207 -29 62 -114 202 -132 215 -3 3 -20 23 -37 44 -17 21
-31 36 -31 33 0 -3 -13 7 -28 21 -36 35 -119 104 -196 165 -34 27 -68 54 -76
61 -9 6 -38 27 -65 46 -28 18 -62 43 -77 54 -14 12 -41 32 -59 46 -33 25 -108
91 -141 123 -10 9 -18 15 -18 12 0 -10 -119 115 -157 165 -34 45 -71 114 -73
135 0 3 0 6 -1 8 -12 54 -17 234 -7 282 14 63 17 77 30 113 32 95 163 258 237
296 49 26 147 48 206 48 45 0 147 -35 165 -57 7 -8 17 -15 23 -15 14 0 85 -65
135 -124 66 -77 72 -86 72 -94 0 -5 20 -28 45 -51 25 -23 45 -39 45 -35 0 5 5
3 12 -4 7 -7 38 -12 70 -12 163 0 262 137 234 324 -4 27 -11 56 -16 65 -4 9
-8 20 -8 24 0 9 -19 61 -36 97 -37 81 -222 290 -256 290 -5 0 -10 5 -10 10 0
6 -6 10 -14 10 -8 0 -16 4 -18 8 -4 11 -114 63 -146 68 -14 3 -29 7 -34 10 -9
6 -22 8 -98 20 -61 9 -356 12 -372 3z"/>
<path d="M4623 3609 c-19 -7 -21 -15 -19 -74 1 -36 -3 -70 -9 -74 -5 -4 -56
-7 -113 -7 -57 1 -108 -2 -114 -5 -16 -10 -17 -67 -2 -80 7 -5 53 -10 103 -11
66 0 91 -4 91 -13 0 -36 -107 -248 -176 -348 l-54 -79 21 -38 c12 -21 27 -36
34 -34 6 3 22 22 36 44 25 41 48 52 45 23 -1 -15 9 -18 67 -21 75 -3 69 5 69
-104 0 -53 1 -57 26 -65 32 -11 62 -6 63 10 1 7 3 39 4 72 1 33 3 66 4 73 1 8
21 12 66 12 66 0 68 1 68 43 0 9 1 17 2 17 1 0 17 -22 36 -50 37 -54 59 -62
77 -27 20 40 17 51 -34 128 -28 42 -59 91 -69 110 -46 88 -75 148 -93 196
l-20 53 99 -2 c55 0 102 2 106 5 11 11 10 78 -1 85 -6 3 -62 6 -125 7 l-115 0
-2 70 c-1 39 -2 73 -3 76 -2 11 -47 16 -68 8z m-20 -512 c-3 -137 5 -123 -60
-121 -60 1 -71 14 -37 40 7 6 14 15 14 20 0 5 16 39 35 77 19 37 35 69 35 72
3 64 15 -13 13 -88z m157 -10 l55 -113 -60 1 -60 1 0 112 c0 62 2 112 5 112 3
-1 30 -51 60 -113z"/>
<path d="M5484 3586 c-4 -11 -8 -79 -10 -151 -3 -112 -9 -200 -14 -200 -1 0
-3 -7 -5 -15 -11 -53 -58 -176 -86 -225 -17 -31 -58 -84 -91 -117 -61 -62 -61
-64 -25 -112 14 -19 16 -19 40 -3 46 30 137 132 137 153 0 4 6 15 14 23 8 9
24 41 36 71 12 30 27 66 33 80 6 14 11 28 11 32 3 25 15 13 21 -21 8 -47 63
-166 102 -219 29 -40 121 -132 131 -132 13 0 27 15 42 44 14 27 13 29 -25 65
-51 46 -106 122 -135 186 -26 57 -59 158 -65 195 -15 92 -17 128 -19 232 -1
65 -5 120 -8 123 -3 3 -22 7 -42 8 -29 3 -37 -1 -42 -17z"/>
<path d="M6213 3591 c-32 -16 -41 -38 -24 -56 5 -6 12 -20 16 -33 6 -19 3 -23
-12 -21 -10 2 -29 0 -43 -4 l-25 -6 3 -116 3 -115 39 0 c21 0 41 3 43 8 3 4
62 6 131 4 l127 -3 -31 -39 c-17 -22 -34 -39 -38 -39 -25 4 -32 -4 -32 -41 l0
-39 -132 -3 -133 -3 0 -45 0 -45 133 -3 132 -3 -2 -77 -3 -77 -60 0 c-51 0
-60 -3 -59 -17 1 -10 -2 -18 -7 -18 -6 0 -5 -9 1 -20 6 -11 7 -20 3 -20 -4 0
-2 -5 3 -10 10 -10 66 -14 151 -11 48 1 63 38 60 146 -1 47 0 90 3 95 3 5 59
11 125 12 l119 3 1 37 c1 20 -1 41 -4 47 -4 6 -58 12 -124 13 l-117 3 40 43
c22 23 40 47 40 52 0 6 4 10 8 10 5 0 14 11 21 23 11 21 18 23 62 19 l49 -5 0
116 c0 124 -5 135 -52 131 -31 -3 -35 8 -13 46 21 36 18 55 -9 68 -43 19 -58
9 -82 -54 -19 -51 -25 -59 -48 -60 -22 -1 -28 5 -37 39 -13 50 -37 87 -56 87
-7 0 -24 -7 -38 -16 -23 -15 -23 -17 -9 -56 18 -52 18 -58 -4 -58 -12 0 -26
18 -42 56 -14 31 -29 59 -35 64 -5 4 -25 0 -42 -9z m375 -224 l3 -27 -187 2
c-184 3 -187 3 -190 25 -5 28 -1 28 206 28 l165 0 3 -28z"/>
<path d="M7245 3586 c-3 -12 -6 -48 -7 -81 l-3 -60 -42 -1 c-39 0 -41 1 -38
25 1 14 4 26 5 26 7 0 6 62 -1 71 -10 12 -72 13 -78 2 -8 -16 -32 -125 -37
-167 -2 -25 -9 -51 -16 -58 -6 -7 -8 -13 -4 -13 3 0 1 -12 -5 -27 -6 -16 -12
-35 -14 -43 -2 -8 -8 -30 -14 -47 -7 -26 -6 -36 5 -47 21 -21 53 -29 68 -17
10 8 12 4 11 -20 -1 -16 3 -33 9 -37 6 -4 43 -7 81 -7 l70 0 3 -115 3 -116
-113 1 c-62 1 -119 0 -125 -3 -21 -7 -16 -80 5 -86 22 -6 522 -6 545 0 12 4
17 16 17 44 0 46 -7 48 -133 46 -49 -1 -90 1 -93 6 -4 6 -7 116 -5 199 1 26 2
26 74 24 39 -1 78 0 85 3 7 2 12 22 12 48 l0 44 -85 0 c-74 0 -85 2 -86 18 0
9 -1 36 -3 60 -1 23 2 42 6 42 5 0 4 9 -2 19 -15 29 0 34 104 36 50 2 94 3 97
4 7 1 4 65 -4 77 -3 6 -47 9 -97 9 -50 0 -94 3 -97 9 -3 5 -6 36 -5 69 1 68
-9 82 -56 83 -25 0 -34 -5 -37 -20z m-5 -318 l0 -87 -84 -3 -84 -3 13 25 c7
14 15 39 19 55 25 106 20 100 81 100 l55 0 0 -87z"/>
<path d="M8091 3571 c-44 -60 -200 -221 -212 -221 -18 0 -29 -39 -18 -67 15
-41 29 -44 64 -17 38 29 47 30 43 7 -3 -17 13 -18 190 -21 187 -2 192 -2 192
18 0 26 14 25 42 -3 25 -24 53 -30 53 -10 0 6 3 15 8 19 10 10 9 64 -1 64 -13
0 -130 116 -192 190 -68 81 -68 80 -109 78 -25 -2 -40 -11 -60 -37z m119 -121
c25 -33 48 -59 52 -60 4 0 16 -13 26 -28 l20 -28 -149 1 c-82 0 -149 3 -149 6
0 3 15 20 33 37 32 31 85 93 100 118 12 22 19 17 67 -46z"/>
<path d="M3543 3561 c-11 -8 -11 -791 0 -808 9 -14 56 -14 74 0 6 4 10 14 7
22 -9 23 17 28 154 28 121 0 136 -1 138 -17 5 -37 13 -43 48 -42 19 1 38 5 41
8 8 8 10 793 2 806 -7 11 -448 14 -464 3z m373 -203 l1 -115 -146 1 -146 1 0
112 c-1 131 -19 118 165 117 l125 0 1 -116z m-5 -207 c4 -1 7 -60 6 -131 l0
-131 -146 3 -146 3 0 130 0 130 140 -2 c77 0 143 -1 146 -2z"/>
<path d="M7910 3150 c-33 -5 -35 -7 -33 -39 1 -18 3 -35 5 -37 2 -2 40 -4 85
-5 l81 -2 -13 -38 c-8 -22 -13 -39 -11 -39 2 0 -7 -30 -19 -67 -21 -67 -22
-68 -61 -71 -43 -4 -54 -14 -54 -53 0 -34 21 -51 56 -45 16 3 54 7 84 11 82 9
183 23 225 32 85 18 85 18 91 -15 9 -46 28 -58 62 -41 15 8 30 18 33 22 6 8
-29 104 -66 184 -8 17 -15 36 -15 41 0 6 -8 24 -17 41 -14 23 -23 29 -38 25
-33 -10 -60 -41 -48 -56 5 -7 17 -32 26 -55 l17 -43 -28 -5 c-15 -4 -35 -10
-44 -16 -10 -5 -18 -5 -18 -1 0 5 -25 3 -56 -5 -31 -8 -58 -13 -60 -10 -4 4
22 127 34 157 7 19 9 28 11 40 1 6 57 10 146 10 127 0 145 2 154 18 6 11 5 26
-2 42 l-12 25 -240 0 c-132 0 -256 -2 -275 -5z"/>
</g>
</svg>
